<mxfile host="app.diagrams.net" modified="2023-07-07T07:50:15.284Z" agent="Mozilla/5.0 (X11; Linux x86_64) AppleWebKit/537.36 (KHTML, like Gecko) Chrome/111.0.0.0 Safari/537.36" version="21.6.1" etag="HgioLCrzSx2oMdxtMJgL" type="github">
  <diagram name="第 1 页" id="tcLax6x1Hgo2NT0Mx165">
    <mxGraphModel>
      <root>
        <mxCell id="0" />
        <mxCell id="1" parent="0" />
      </root>
    </mxGraphModel>
  </diagram>
</mxfile>
